<svg xmlns="http://www.w3.org/2000/svg" width="265" height="170" viewBox="0 0 265 170" fill="none"><path opacity="0.8" d="M17.13 169.56H0V0H17.13V169.56Z" fill="#F1995D"></path><path d="M48.4 99.63C48.4 101.76 48.86 103.4 49.79 104.54C50.71 105.69 52.02 106.26 53.7 106.26H61.76V122.56H51.68C45.18 122.56 40.16 120.54 36.6 116.51C33.04 112.48 31.27 106.79 31.27 99.46V0H48.41V99.63H48.4Z" fill="#3388AA"></path><path opacity="0.8" d="M83.98 0H84.5C89.09 0 92.81 3.72 92.81 8.31V8.83C92.81 13.42 89.09 17.14 84.5 17.14H83.98C79.39 17.14 75.67 13.42 75.67 8.83V8.31C75.67 3.72 79.39 0 83.98 0Z" fill="#F1995D"></path><path d="M92.81 34.95H75.67V122.15H92.81V34.95Z" fill="#3388AA"></path><path d="M123.86 118.96C118.48 115.99 114.38 111.67 111.55 105.98C108.72 100.3 107.31 93.45 107.31 85.44V71.24C107.31 63.34 108.72 56.58 111.55 50.95C114.38 45.32 118.48 41.04 123.86 38.1C129.24 35.16 135.7 33.69 143.26 33.69C150.82 33.69 157.29 35.16 162.66 38.1C168.04 41.04 172.14 45.32 174.97 50.95C177.8 56.58 179.21 63.34 179.21 71.24V85.69C179.21 93.64 177.79 100.43 174.97 106.06C172.14 111.69 168.04 115.99 162.66 118.95C157.28 121.92 150.82 123.4 143.26 123.4C135.71 123.41 129.24 121.92 123.86 118.96ZM157.17 101.48C160.45 97.73 162.09 92.46 162.09 85.69V71.24C162.09 64.46 160.45 59.23 157.17 55.53C153.89 51.83 149.26 49.99 143.27 49.99C137.28 49.99 132.64 51.84 129.37 55.53C126.09 59.23 124.46 64.46 124.46 71.24V85.69C124.46 92.47 126.1 97.73 129.37 101.48C132.65 105.23 137.28 107.11 143.27 107.11C149.26 107.11 153.89 105.23 157.17 101.48Z" fill="#3388AA"></path><path d="M212.71 121.9C208.2 120.89 203.99 119.38 200.07 117.36C196.15 115.34 192.54 112.82 189.23 109.8L199.4 97.28C204.1 100.86 208.78 103.55 213.43 105.34C218.08 107.13 222.67 108.03 227.21 108.03C233.99 108.03 239.07 106.98 242.46 104.88C245.85 102.78 247.54 99.63 247.54 95.43C247.54 92.63 246.62 90.53 244.77 89.13C242.92 87.73 240.63 86.79 237.88 86.32C235.14 85.84 231.27 85.41 226.29 85.02C225.84 85.02 225.37 85.01 224.86 84.98C224.36 84.95 223.88 84.91 223.43 84.85C223.21 84.85 222.98 84.84 222.76 84.81C222.53 84.78 222.31 84.77 222.09 84.77C216.43 84.32 211.64 83.5 207.73 82.29C203.81 81.09 200.55 78.83 197.94 75.53C195.34 72.23 194.03 67.49 194.03 61.33C194.03 55.17 195.29 50.05 197.81 45.96C200.33 41.87 204.08 38.81 209.07 36.76C214.05 34.72 220.3 33.69 227.8 33.69C232.34 33.69 236.66 34.11 240.78 34.95C244.9 35.79 248.83 37.04 252.58 38.69C256.33 40.34 259.94 42.43 263.42 44.95L253.07 57.46C248.7 54.66 244.4 52.56 240.18 51.16C235.95 49.76 231.82 49.06 227.79 49.06C221.96 49.06 217.6 50.06 214.68 52.04C211.77 54.03 210.31 57.01 210.31 60.99C210.31 63.34 211.14 65.11 212.79 66.28C214.44 67.46 216.53 68.24 219.05 68.63C221.57 69.02 225.15 69.36 229.8 69.64C230.14 69.7 230.49 69.72 230.85 69.72C231.21 69.72 231.59 69.75 231.98 69.8C232.15 69.8 232.32 69.8 232.49 69.8C232.66 69.8 232.82 69.83 232.99 69.88C239.09 70.27 244.29 71.09 248.57 72.32C252.85 73.55 256.45 75.99 259.36 79.63C262.27 83.27 263.73 88.53 263.73 95.42C263.73 101.69 262.39 106.89 259.7 111C257.01 115.12 252.97 118.21 247.56 120.28C242.15 122.35 235.37 123.39 227.19 123.39C222.05 123.41 217.21 122.9 212.71 121.9Z" fill="#3388AA"></path><path d="M31.47 143.95H34.78L47.5 163.75L47.07 164.21V143.96H50.68V169.55H47.33L34.65 150.05L35.08 149.59V169.55H31.47V143.95Z" fill="#3388AA"></path><path d="M56.63 143.95H74.98V147.37H56.63V143.95ZM63.98 146.05H67.63V169.56H63.98V146.05Z" fill="#3388AA"></path><path d="M80.21 143.95H83.86V169.56H80.21V143.95ZM81.98 143.95H96.92V147.37H81.98V143.95ZM81.98 155.13H94.95V158.55H81.98V155.13ZM81.98 166.14H96.92V169.56H81.98V166.14Z" fill="#3388AA"></path><path d="M121.53 155.77V160.24C121.53 162.14 121.15 163.82 120.4 165.27C119.65 166.72 118.58 167.84 117.21 168.63C115.83 169.42 114.24 169.82 112.42 169.82C110.58 169.82 108.97 169.45 107.58 168.7C106.19 167.95 105.11 166.9 104.35 165.54C103.59 164.18 103.21 162.6 103.21 160.8V153.25C103.21 151.35 103.59 149.67 104.34 148.23C105.09 146.79 106.16 145.67 107.53 144.87C108.91 144.08 110.5 143.68 112.32 143.68C113.81 143.68 115.19 143.99 116.44 144.62C117.7 145.25 118.75 146.14 119.6 147.29C120.45 148.44 121.02 149.77 121.32 151.29H117.37C117.16 150.43 116.79 149.7 116.28 149.08C115.77 148.46 115.16 147.99 114.47 147.67C113.78 147.35 113.06 147.19 112.32 147.19C111.25 147.19 110.3 147.44 109.49 147.95C108.68 148.45 108.05 149.16 107.61 150.07C107.17 150.98 106.95 152.04 106.95 153.25V160.8C106.95 161.9 107.18 162.87 107.63 163.7C108.08 164.53 108.72 165.17 109.55 165.63C110.38 166.09 111.34 166.32 112.42 166.32C113.49 166.32 114.43 166.08 115.25 165.61C116.06 165.13 116.69 164.44 117.13 163.54C117.57 162.64 117.79 161.56 117.79 160.32V159.21H112.51V155.78H121.53V155.77Z" fill="#3388AA"></path><path d="M128.72 143.93H132.37V169.56H128.72V143.93ZM130.32 155.31H139.19C139.88 155.31 140.5 155.14 141.03 154.82C141.57 154.49 141.98 154.02 142.27 153.42C142.56 152.82 142.71 152.12 142.71 151.33C142.71 150.54 142.56 149.85 142.27 149.24C141.98 148.64 141.57 148.17 141.04 147.84C140.51 147.51 139.89 147.35 139.19 147.35H130.32V143.93H139.05C140.55 143.93 141.87 144.24 143.01 144.85C144.15 145.46 145.03 146.33 145.66 147.45C146.29 148.57 146.6 149.87 146.6 151.33C146.6 152.79 146.28 154.09 145.65 155.21C145.02 156.33 144.13 157.2 142.99 157.81C141.85 158.42 140.54 158.73 139.05 158.73H130.32V155.31ZM137.4 157.94L141.03 157.13L147.68 169.56H143.35L137.4 157.94Z" fill="#3388AA"></path><path d="M160.44 143.95H163.55L173.14 169.56H169.2L161.99 148.9L154.78 169.56H150.84L160.44 143.95ZM155.27 160.52H168.96V163.94H155.27V160.52Z" fill="#3388AA"></path><path d="M174.44 143.95H192.79V147.37H174.44V143.95ZM181.79 146.05H185.44V169.56H181.79V146.05Z" fill="#3388AA"></path><path d="M201.11 168.65C199.73 167.87 198.66 166.77 197.9 165.34C197.14 163.91 196.77 162.26 196.77 160.38V153.12C196.77 151.24 197.15 149.59 197.9 148.16C198.66 146.73 199.73 145.63 201.11 144.85C202.49 144.07 204.09 143.68 205.9 143.68C207.71 143.68 209.31 144.07 210.69 144.85C212.07 145.63 213.14 146.73 213.9 148.16C214.66 149.59 215.04 151.24 215.04 153.12V160.38C215.04 162.26 214.66 163.91 213.9 165.34C213.14 166.77 212.07 167.87 210.69 168.65C209.31 169.43 207.71 169.82 205.9 169.82C204.09 169.82 202.49 169.43 201.11 168.65ZM208.74 165.57C209.56 165.09 210.19 164.42 210.64 163.54C211.09 162.66 211.31 161.65 211.31 160.5V153C211.31 151.85 211.09 150.84 210.64 149.96C210.19 149.09 209.56 148.41 208.74 147.93C207.92 147.45 206.98 147.22 205.91 147.22C204.84 147.22 203.89 147.46 203.07 147.93C202.25 148.4 201.62 149.08 201.17 149.96C200.72 150.84 200.5 151.85 200.5 153V160.5C200.5 161.65 200.72 162.66 201.17 163.54C201.62 164.42 202.25 165.09 203.07 165.57C203.89 166.05 204.83 166.28 205.91 166.28C206.97 166.28 207.92 166.05 208.74 165.57Z" fill="#3388AA"></path><path d="M222.24 143.93H225.89V169.56H222.24V143.93ZM223.83 155.31H232.7C233.39 155.31 234.01 155.14 234.54 154.82C235.08 154.49 235.49 154.02 235.78 153.42C236.07 152.82 236.22 152.12 236.22 151.33C236.22 150.54 236.07 149.85 235.78 149.24C235.49 148.64 235.08 148.17 234.55 147.84C234.02 147.51 233.4 147.35 232.7 147.35H223.83V143.93H232.56C234.06 143.93 235.38 144.24 236.52 144.85C237.66 145.46 238.54 146.33 239.17 147.45C239.8 148.57 240.11 149.87 240.11 151.33C240.11 152.79 239.79 154.09 239.16 155.21C238.53 156.33 237.64 157.2 236.5 157.81C235.36 158.42 234.05 158.73 232.56 158.73H223.83V155.31ZM230.91 157.94L234.54 157.13L241.19 169.56H236.86L230.91 157.94Z" fill="#3388AA"></path><path d="M251.31 169.47C250.19 169.23 249.14 168.88 248.17 168.41C247.2 167.94 246.29 167.35 245.44 166.65L247.71 163.9C248.7 164.74 249.79 165.38 250.98 165.8C252.17 166.22 253.47 166.43 254.86 166.43C256.74 166.43 258.2 166.09 259.24 165.4C260.28 164.71 260.8 163.74 260.8 162.48V162.46C260.8 161.57 260.57 160.86 260.09 160.34C259.62 159.82 259.01 159.43 258.27 159.18C257.53 158.93 256.56 158.7 255.38 158.48C255.34 158.47 255.31 158.46 255.26 158.46C255.22 158.46 255.18 158.45 255.14 158.44L254.87 158.39C253.13 158.1 251.71 157.76 250.62 157.39C249.53 157.02 248.59 156.35 247.82 155.36C247.05 154.37 246.66 152.98 246.66 151.18V151.16C246.66 149.58 247.02 148.22 247.74 147.1C248.46 145.98 249.51 145.13 250.9 144.54C252.28 143.95 253.95 143.66 255.89 143.66C256.82 143.66 257.74 143.76 258.64 143.96C259.54 144.16 260.43 144.46 261.3 144.85C262.18 145.24 263.04 145.74 263.89 146.34L261.81 149.19C260.82 148.47 259.83 147.94 258.85 147.58C257.87 147.22 256.88 147.04 255.89 147.04C254.11 147.04 252.73 147.39 251.75 148.09C250.77 148.79 250.27 149.78 250.27 151.06V151.08C250.27 151.96 250.52 152.65 251.03 153.16C251.54 153.67 252.17 154.04 252.93 154.28C253.69 154.52 254.74 154.77 256.09 155.03C256.14 155.04 256.18 155.05 256.22 155.06C256.26 155.07 256.31 155.07 256.35 155.09C256.41 155.1 256.48 155.11 256.55 155.13C256.62 155.14 256.69 155.15 256.75 155.17C258.32 155.49 259.64 155.86 260.7 156.3C261.76 156.74 262.64 157.44 263.35 158.4C264.06 159.37 264.41 160.69 264.41 162.37V162.41C264.41 163.97 264.03 165.31 263.28 166.42C262.53 167.53 261.44 168.37 260.02 168.96C258.59 169.54 256.87 169.83 254.86 169.83C253.61 169.82 252.43 169.71 251.31 169.47Z" fill="#3388AA"></path></svg>
