<svg width="640" height="180" viewBox="0 0 640 180" fill="none" xmlns="http://www.w3.org/2000/svg" role="img" aria-labelledby="rapidquoteTitle rapidquoteDesc">
  <title id="rapidquoteTitle">RapidQuote logo placeholder</title>
  <desc id="rapidquoteDesc">Placeholder RapidQuote wordmark asset used for product-name placements until the final approved logo file is added.</desc>
  <defs>
    <linearGradient id="rqGradient" x1="44" y1="24" x2="144" y2="156" gradientUnits="userSpaceOnUse">
      <stop offset="0" stop-color="#0F62FE"/>
      <stop offset="1" stop-color="#39A2FF"/>
    </linearGradient>
  </defs>
  <rect width="640" height="180" rx="28" fill="white" fill-opacity="0"/>
  <g>
    <rect x="24" y="24" width="120" height="120" rx="30" fill="url(#rqGradient)"/>
    <path d="M61 108V60H83.5C92.2 60 98.7 62 103 66C107.2 69.9 109.3 75.1 109.3 81.5C109.3 86 108.3 89.9 106.2 93.1C104.1 96.3 101.1 98.8 97 100.4L111 108H95.7L83.8 101.6H74.2V108H61ZM74.2 90.7H82.2C85.7 90.7 88.4 89.9 90.2 88.4C92.1 86.8 93 84.6 93 81.6C93 78.7 92.1 76.5 90.2 75C88.4 73.5 85.7 72.8 82.2 72.8H74.2V90.7Z" fill="white"/>
  </g>
  <g fill="#16202B">
    <path d="M188 116V63.6H212.8C218 63.6 222.5 64.6 226.1 66.5C229.8 68.5 232.7 71.2 234.7 74.8C236.8 78.4 237.8 82.6 237.8 87.6C237.8 92.5 236.8 96.8 234.7 100.4C232.7 104 229.8 106.8 226.1 108.7C222.5 110.6 218 111.6 212.8 111.6H198.7V116H188ZM198.7 101.5H212.2C216 101.5 219 100.3 221.1 97.9C223.2 95.5 224.3 92.1 224.3 87.6C224.3 83 223.2 79.7 221.1 77.4C219 75 216 73.8 212.2 73.8H198.7V101.5Z"/>
    <path d="M273.5 117.1C269 117.1 265 116.1 261.6 114.1C258.2 112 255.5 109.2 253.6 105.5C251.7 101.9 250.7 97.7 250.7 92.9C250.7 88.1 251.7 83.9 253.7 80.3C255.6 76.7 258.3 73.9 261.8 71.9C265.3 69.9 269.3 68.9 273.8 68.9C278.2 68.9 282.1 69.9 285.5 71.9C288.9 73.9 291.5 76.7 293.4 80.3C295.3 83.9 296.2 88.1 296.2 92.9C296.2 97.7 295.2 101.9 293.3 105.5C291.4 109.2 288.7 112 285.3 114.1C281.8 116.1 277.9 117.1 273.5 117.1ZM273.5 106.1C276.5 106.1 278.9 104.9 280.8 102.4C282.7 100 283.6 96.8 283.6 92.9C283.6 88.9 282.7 85.8 280.8 83.4C279 80.9 276.6 79.7 273.5 79.7C270.4 79.7 267.9 80.9 266 83.4C264.1 85.8 263.2 88.9 263.2 92.9C263.2 96.8 264.1 100 266 102.4C267.9 104.9 270.4 106.1 273.5 106.1Z"/>
    <path d="M332.6 117.1C328.1 117.1 324.1 116.1 320.7 114.1C317.3 112 314.6 109.2 312.7 105.5C310.8 101.9 309.8 97.7 309.8 92.9C309.8 88.1 310.8 83.9 312.8 80.3C314.7 76.7 317.4 73.9 320.9 71.9C324.4 69.9 328.4 68.9 332.9 68.9C337.6 68.9 341.8 70 345.3 72.2L341.3 81.2C338.9 79.9 336.2 79.2 333.2 79.2C329.8 79.2 327 80.4 324.9 82.8C322.8 85.2 321.7 88.5 321.7 92.9C321.7 97.2 322.8 100.5 324.9 102.9C327 105.3 329.8 106.5 333.2 106.5C336.3 106.5 339.3 105.7 342 104.1L346 113.1C342 115.8 337.6 117.1 332.6 117.1Z"/>
    <path d="M357.1 133.1L365.2 113.4L346.8 70H360.2L371.8 100.9L383.7 70H396.7L369.6 133.1H357.1Z"/>
    <path d="M428.3 117.1C423.8 117.1 419.8 116.1 416.4 114.1C413 112 410.3 109.2 408.4 105.5C406.5 101.9 405.5 97.7 405.5 92.9C405.5 88.1 406.5 83.9 408.5 80.3C410.4 76.7 413.1 73.9 416.6 71.9C420.1 69.9 424.1 68.9 428.6 68.9C433 68.9 436.9 69.9 440.3 71.9C443.7 73.9 446.3 76.7 448.2 80.3C450.1 83.9 451 88.1 451 92.9C451 97.2 450.2 101.1 448.6 104.5L457.4 112.1L450.1 120.4L441.4 112.9C437.8 115.7 433.5 117.1 428.3 117.1ZM428.3 106.1C429.8 106.1 431.2 105.8 432.5 105.3L424.4 98.4L431.7 90.1L439.5 96.8C439.8 95.6 440 94.3 440 92.9C440 88.9 439.1 85.8 437.2 83.4C435.3 80.9 432.9 79.7 429.8 79.7C426.7 79.7 424.2 80.9 422.3 83.4C420.4 85.8 419.5 88.9 419.5 92.9C419.5 96.8 420.4 100 422.3 102.4C424.1 104.9 426.1 106.1 428.3 106.1Z"/>
    <path d="M487.6 117.1C481.7 117.1 477.2 115.5 474.1 112.4C471 109.3 469.5 104.7 469.5 98.4V70H481.7V97.1C481.7 100.2 482.3 102.4 483.6 103.8C484.8 105.2 486.8 105.9 489.4 105.9C492.2 105.9 494.5 105 496.2 103.1C498 101.2 498.8 98.7 498.8 95.5V70H511V116H500.4L499.6 109.7C497 114.6 493 117.1 487.6 117.1Z"/>
    <path d="M546.2 117.1C541.3 117.1 537 116.1 533.4 114.1C529.8 112.1 527 109.3 525 105.7C523 102.1 522 97.9 522 93.1C522 88.3 523 84 525 80.4C527.1 76.8 529.8 74 533.3 72C536.8 69.9 540.8 68.9 545.2 68.9C549.5 68.9 553.2 69.9 556.4 71.9C559.6 73.9 562.1 76.6 563.9 80.1C565.7 83.6 566.6 87.5 566.6 91.8C566.6 93.1 566.5 94.5 566.3 96H534C534.5 99.3 535.9 101.8 538 103.5C540.1 105.3 542.9 106.2 546.3 106.2C550.4 106.2 554.2 104.9 557.8 102.4L563.1 110.2C558.1 114.8 552.4 117.1 546.2 117.1ZM534.2 87.3H555.2C554.8 84.5 553.7 82.3 551.9 80.7C550.2 79.1 548 78.3 545.3 78.3C542.6 78.3 540.3 79.1 538.3 80.7C536.4 82.3 535 84.5 534.2 87.3Z"/>
    <path d="M595.2 117.1C590.8 117.1 587.4 116 585.1 113.7C582.8 111.4 581.6 108 581.6 103.6V80.6H573.6V70H581.6V57.2H593.8V70H605.5V80.6H593.8V101.5C593.8 104 595 105.3 597.5 105.3C599.3 105.3 601 104.8 602.5 103.7L606.6 112.8C603.1 115.7 599.3 117.1 595.2 117.1Z"/>
  </g>
</svg>
